<?xml version="1.0" standalone="no"?><!DOCTYPE svg PUBLIC "-//W3C//DTD SVG 1.1//EN" "http://www.w3.org/Graphics/SVG/1.1/DTD/svg11.dtd"><svg t="1571984930133" class="icon" viewBox="0 0 1024 1024" version="1.1" xmlns="http://www.w3.org/2000/svg" p-id="2732" xmlns:xlink="http://www.w3.org/1999/xlink" width="200" height="200"><defs><style type="text/css"></style></defs><path d="M151.466667 597.333333L106.666667 768s157.866667 10.666667 200.533333-121.6S151.466667 597.333333 151.466667 597.333333z" fill="#1A237E" p-id="2733"></path><path d="M0 362.666667c17.066667 100.266667 91.733333 362.666667 384 362.666666-25.6-149.333333-85.333333-256-85.333333-256s-196.266667-57.6-273.066667-121.6c-8.533333-8.533333-25.6-8.533333-25.6 14.933334z" fill="#9FA8DA" p-id="2734"></path><path d="M164.266667 450.133333c17.066667 8.533333 40.533333-2.133333 55.466666 4.266667 8.533333 2.133333 0 8.533333 12.8 25.6 25.6 34.133333 61.866667 66.133333 110.933334 74.666667 4.266667 12.8 8.533333 27.733333 12.8 44.8-100.266667-10.666667-162.133333-91.733333-192-149.333334zM375.466667 682.666667c-2.133333-14.933333-6.4-29.866667-8.533334-42.666667-170.666667-10.666667-238.933333-149.333333-264.533333-228.266667-17.066667-12.8-36.266667-27.733333-55.466667-44.8 8.533333 40.533333 68.266667 309.333333 328.533334 315.733334z" fill="#7986CB" p-id="2735"></path><path d="M812.8 253.866667S829.866667 172.8 661.333333 85.333333c-70.4 130.133333 89.6 196.266667 85.333334 256-4.266667 59.733333-106.666667 64-106.666667 64-66.133333-10.666667-172.8-234.666667-277.333333-234.666666S40.533333 200.533333 21.333333 256c-19.2 55.466667 0 85.333333 0 85.333333s172.8 132.266667 256 128c61.866667-4.266667 149.333333 448 149.333334 448s110.933333-34.133333 117.333333-209.066666C776.533333 640 810.666667 384 810.666667 384c10.666667-106.666667 147.2 64 213.333333-85.333333-179.2-110.933333-211.2-44.8-211.2-44.8z" fill="#303F9F" p-id="2736"></path><path d="M490.666667 576s34.133333-8.533333 42.666666 21.333333c49.066667 273.066667-106.666667 341.333333-106.666666 341.333334s-87.466667-473.6-149.333334-469.333334c49.066667 17.066667 64 100.266667 130.133334 110.933334L490.666667 576z m-170.666667-149.333333c23.466667 0 42.666667-19.2 42.666667-42.666667s-19.2-42.666667-42.666667-42.666667-42.666667 19.2-42.666667 42.666667 19.2 42.666667 42.666667 42.666667z" fill="#5C6BC0" p-id="2737"></path><path d="M426.666667 499.2c-2.133333 0-38.4 21.333333-64 21.333333-17.066667 0-36.266667-2.133333-57.6-27.733333-6.4-6.4-19.2-8.533333-38.4-10.666667-46.933333-8.533333-113.066667-21.333333-228.266667-123.733333L21.333333 341.333333s-14.933333-23.466667-6.4-64c138.666667 140.8 206.933333 155.733333 258.133334 164.266667 23.466667 4.266667 44.8 6.4 61.866666 21.333333l2.133334 2.133334c23.466667 29.866667 89.6 34.133333 89.6 34.133333zM298.666667 362.666667c-10.666667 0-21.333333 8.533333-21.333334 21.333333s8.533333 21.333333 21.333334 21.333333 21.333333-8.533333 21.333333-21.333333-10.666667-21.333333-21.333333-21.333333z" fill="#263238" p-id="2738"></path></svg>